# xmcd
#
# Track frame offsets:
#	150
#	14623
#	25416
#	40637
#	53756
#	65172
#	75652
#	88234
#	96653
#	110593
#
# Disc length: 1644 seconds
#
# Revision: 1
# Processed by: cddbd v1.5.2PL0 Copyright (c) Steve Scherf et al.
# Submitted via: audiograbber 1.83.01
#
DISCID=87066a0a
DTITLE=Porter Wagoner - One For The Road
DYEAR=1983
DGENRE=Country
TTITLE0=The Rose
TTITLE1=I'm So Lonesome I Could Cry
TTITLE2=Is Anybody Going To San Antone
TTITLE3=Your Lying Blue Eyes
TTITLE4=Touching Memories
TTITLE5=You're One Lesson
TTITLE6=Coat Of Many Colors (With Dolly Parton)
TTITLE7=Dooley
TTITLE8=You Never Said A Word
TTITLE9=When The One You Love Says I Love You
EXTD=
EXTT0=
EXTT1=
EXTT2=
EXTT3=
EXTT4=
EXTT5=
EXTT6=
EXTT7=
EXTT8=
EXTT9=
PLAYORDER=
